<svg width="49" height="34" viewBox="0 0 49 34" fill="none" xmlns="http://www.w3.org/2000/svg">
<path d="M5.5 5.54199L32 33.542" stroke="white" stroke-width="0.5"/>
<path d="M5.5 32.7921H1L15.25 18.542L17.5 20.7921L5.5 32.7921Z" fill="white" stroke="white" stroke-width="0.5"/>
<rect opacity="0.5" x="12" y="2.54199" width="4" height="4" fill="white"/>
<rect x="12" y="2.54199" width="4" height="4" fill="white"/>
<rect x="24" y="5.54199" width="2.5" height="2.5" fill="white"/>
<rect x="32" y="13.542" width="2.5" height="2.5" fill="white"/>
<rect x="3" y="3.54199" width="3" height="3" fill="white"/>
<path d="M5 4.0421C5.66667 3.20877 9.6 0.641992 12 1.04199" stroke="white" stroke-width="0.5"/>
<path d="M11 1.04199L31.5 1.54199C38 2.54199 47.7 11.742 38.5 24.542L47.5 33.042H32L22 23.042" stroke="white" stroke-width="0.5"/>
<rect opacity="0.5" x="24" y="5.54199" width="2.5" height="2.5" fill="white"/>
<rect opacity="0.5" x="32" y="13.542" width="2.5" height="2.5" fill="white"/>
<path d="M16 6.54199L37.5 28.042" stroke="white" stroke-width="0.5"/>
<path d="M26.1035 7.64539L33.1035 14.6454" stroke="white" stroke-width="0.5"/>
<rect x="16" y="25.542" width="3" height="3" fill="white"/>
<rect x="20" y="25.542" width="3" height="3" fill="white"/>
<rect x="16" y="29.542" width="3" height="3" fill="white"/>
<rect x="20" y="29.542" width="3" height="3" fill="white"/>
<rect x="19" y="19.542" width="3" height="3" fill="white"/>
<rect x="37" y="27.542" width="4" height="4" fill="white"/>
</svg>
