<svg width="19" height="14" viewBox="0 0 19 14" fill="none" xmlns="http://www.w3.org/2000/svg">
<path d="M10.6755 0H10.7135C10.9787 0 11.2331 0.105357 11.4206 0.292893C11.6082 0.48043 11.7135 0.734784 11.7135 1C11.7135 1.26522 11.6082 1.51957 11.4206 1.70711C11.2331 1.89464 10.9787 2 10.7135 2C9.41853 2 8.44753 2 7.67653 2.062C6.90353 2.124 6.44653 2.241 6.13853 2.405C5.45442 2.77676 4.90501 3.35486 4.56853 4.057C4.39753 4.411 4.28853 4.863 4.23053 5.605C4.17853 6.263 4.17253 7.081 4.17053 8.185L4.86353 7.493C5.05104 7.30536 5.30541 7.19989 5.57068 7.1998C5.83595 7.1997 6.09039 7.30499 6.27803 7.4925C6.46567 7.68001 6.57114 7.93438 6.57123 8.19965C6.57133 8.46492 6.46604 8.71936 6.27853 8.907L3.87853 11.307C3.78269 11.4031 3.66831 11.4786 3.54234 11.529C3.41637 11.5795 3.28145 11.6038 3.1458 11.6004C3.01015 11.597 2.8766 11.5661 2.75329 11.5095C2.62998 11.4528 2.51949 11.3717 2.42853 11.271L0.258532 8.871C0.170415 8.77363 0.10234 8.65985 0.0581944 8.53616C0.0140488 8.41248 -0.00530318 8.28131 0.00124335 8.15015C0.00778988 8.01899 0.0401067 7.8904 0.0963488 7.77172C0.152591 7.65305 0.231657 7.54662 0.329032 7.4585C0.426407 7.37038 0.540185 7.30231 0.663868 7.25816C0.787552 7.21402 0.91872 7.19467 1.04988 7.20121C1.18105 7.20776 1.30963 7.24008 1.42831 7.29632C1.54698 7.35256 1.65341 7.43162 1.74153 7.529L2.17153 8.005C2.17253 6.987 2.18153 6.149 2.23653 5.45C2.30353 4.591 2.44253 3.858 2.76953 3.184C3.29015 2.10196 4.13919 1.21197 5.19553 0.641C5.86553 0.282 6.65153 0.138 7.51753 0.0689998C8.37753 -2.30968e-07 9.42853 0 10.6755 0ZM14.8525 2.4C14.988 2.40362 15.1213 2.43473 15.2444 2.49146C15.3675 2.54819 15.4778 2.62935 15.5685 2.73L17.7395 5.13C17.8346 5.22604 17.9091 5.34034 17.9588 5.466C18.0084 5.59166 18.032 5.72608 18.0283 5.86113C18.0245 5.99618 17.9934 6.12907 17.9369 6.25178C17.8804 6.37449 17.7996 6.48447 17.6993 6.57508C17.5991 6.66569 17.4816 6.73506 17.3538 6.77899C17.2261 6.82292 17.0907 6.8405 16.956 6.83068C16.8212 6.82086 16.6899 6.78384 16.5698 6.72185C16.4498 6.65986 16.3435 6.57418 16.2575 6.47L15.8275 5.995C15.8255 7.013 15.8165 7.851 15.7615 8.55C15.6945 9.409 15.5555 10.142 15.2285 10.816C14.7079 11.898 13.8589 12.788 12.8025 13.359C12.1325 13.717 11.3465 13.862 10.4805 13.931C9.62053 14 8.57053 14 7.32353 14H7.28353C7.01832 14 6.76396 13.8946 6.57642 13.7071C6.38889 13.5196 6.28353 13.2652 6.28353 13C6.28353 12.7348 6.38889 12.4804 6.57642 12.2929C6.76396 12.1054 7.01832 12 7.28353 12C8.57953 12 9.55053 12 10.3215 11.938C11.0945 11.876 11.5515 11.759 11.8595 11.595C12.5436 11.2232 13.0931 10.6451 13.4295 9.943C13.6005 9.589 13.7095 9.137 13.7675 8.395C13.8195 7.737 13.8265 6.919 13.8275 5.815L13.1345 6.507C12.9459 6.68916 12.6933 6.78995 12.4311 6.78767C12.1689 6.7854 11.9181 6.68023 11.7327 6.49482C11.5473 6.30941 11.4421 6.0586 11.4399 5.7964C11.4376 5.5342 11.5384 5.2816 11.7205 5.093L14.1205 2.693C14.2163 2.5971 14.3306 2.52168 14.4564 2.47131C14.5823 2.42094 14.717 2.39668 14.8525 2.4Z" fill="#828282"/>
</svg>
