<svg width="25" height="24" viewBox="0 0 25 24" fill="none" xmlns="http://www.w3.org/2000/svg">
<path d="M8.87891 12.0001L11.2889 14.4201L16.1189 9.58008" stroke="url(#paint0_linear_1293_1137)" stroke-width="1.5" stroke-linecap="round" stroke-linejoin="round"/>
<path d="M11.2489 2.45007C11.9389 1.86007 13.0689 1.86007 13.7689 2.45007L15.3489 3.81007C15.6489 4.07007 16.2089 4.28007 16.6089 4.28007H18.3089C19.3689 4.28007 20.2389 5.15007 20.2389 6.21007V7.91007C20.2389 8.30007 20.4489 8.87007 20.7089 9.17007L22.0689 10.7501C22.6589 11.4401 22.6589 12.5701 22.0689 13.2701L20.7089 14.8501C20.4489 15.1501 20.2389 15.7101 20.2389 16.1101V17.8101C20.2389 18.8701 19.3689 19.7401 18.3089 19.7401H16.6089C16.2189 19.7401 15.6489 19.9501 15.3489 20.2101L13.7689 21.5701C13.0789 22.1601 11.9489 22.1601 11.2489 21.5701L9.66891 20.2101C9.36891 19.9501 8.80891 19.7401 8.40891 19.7401H6.67891C5.61891 19.7401 4.74891 18.8701 4.74891 17.8101V16.1001C4.74891 15.7101 4.53891 15.1501 4.28891 14.8501L2.93891 13.2601C2.35891 12.5701 2.35891 11.4501 2.93891 10.7601L4.28891 9.17007C4.53891 8.87007 4.74891 8.31007 4.74891 7.92007V6.20007C4.74891 5.14007 5.61891 4.27007 6.67891 4.27007H8.40891C8.79891 4.27007 9.36891 4.06007 9.66891 3.80007L11.2489 2.45007Z" stroke="url(#paint1_linear_1293_1137)" stroke-width="1.5" stroke-linecap="round" stroke-linejoin="round"/>
<defs>
<linearGradient id="paint0_linear_1293_1137" x1="6.73878" y1="11.7581" x2="17.2127" y2="11.8116" gradientUnits="userSpaceOnUse">
<stop stop-color="#FFD700"/>
<stop offset="1" stop-color="#780991"/>
</linearGradient>
<linearGradient id="paint1_linear_1293_1137" x1="-3.41026" y1="11.0098" x2="25.5345" y2="11.1088" gradientUnits="userSpaceOnUse">
<stop stop-color="#FFD700"/>
<stop offset="1" stop-color="#780991"/>
</linearGradient>
</defs>
</svg>
